<svg width="284" height="81" viewBox="0 0 284 81" fill="none" xmlns="http://www.w3.org/2000/svg">
<path d="M64.9908 4C62.8524 4 61.1129 5.73953 61.1129 7.87794C61.1129 9.05402 61.6504 10.096 62.4795 10.8079L56.5785 19.1129L4.95607 19.1147L4 20.009V71.8139L5.01778 72.8836H63.5706L64.3415 71.8139V22.803L63.5706 22.0848H8.12031L7.10253 22.803V68.9519L8.12031 70.0216H60.7086L61.4796 68.9519V26.0227L60.7086 25.3045H11.34L10.3231 26.0227V65.7314L11.34 66.8019H57.4898L58.2608 65.7314V28.8229L57.4898 28.1048H14.5096L13.4927 28.8229V62.8703L14.5096 63.94H23.0454L23.6947 63.5947L32.1374 54.6386H32.5676H51.3286H52.5378V53.0368V52.1335V50.6256V35.6433V35.5575V34.6059H51.3286H32.5667H31.0714V35.5575V35.6433V50.6265V52.1344V53.0377V53.2059L22.6608 62.1512H15.2814V29.8935H56.4721V65.0132H12.1118V27.0924H59.6917V68.2329H8.89214V23.8727H62.5537V71.0948H5.78961V20.9034L57.0096 20.9016L57.7993 20.5251L64.092 11.6396C64.3818 11.7094 64.6805 11.7559 64.9917 11.7559C67.131 11.7559 68.8706 10.0164 68.8706 7.87794C68.8706 5.73953 67.1301 4 64.9908 4ZM32.5032 35.6791H51.1059V50.7043H32.5032V35.6791ZM32.5667 52.1344H51.1059V53.2076H32.5032V52.1344H32.5667ZM64.9908 10.5315C63.5259 10.5315 62.3382 9.3438 62.3382 7.87794C62.3382 6.41298 63.5259 5.22438 64.9908 5.22438C66.4576 5.22438 67.6453 6.41298 67.6453 7.87794C67.6453 9.3429 66.4576 10.5315 64.9908 10.5315Z" fill="url(#paint0_linear_394_177)"/>
<path d="M100.791 34.791V50.8806C100.791 51.0896 101.149 51.1493 101.149 50.8806V42.8507H106.642C106.94 42.8507 106.94 42.4328 106.642 42.4328H101.149V35.0299H107.836C108.045 35.0299 108.104 34.6418 107.836 34.6418H100.97C100.881 34.6418 100.791 34.6716 100.791 34.791V34.791ZM102.672 52.7015H99.2388C99.0896 52.7015 99 52.5821 99 52.4328V33.2687C99 33.1194 99.0896 33 99.2388 33H109.388C109.537 33 109.657 33.1194 109.657 33.2687V36.4627C109.657 36.6119 109.537 36.7313 109.388 36.7313H102.94V40.791H107.955C108.104 40.791 108.194 40.9104 108.194 41.0597V44.3134C108.194 44.4627 108.104 44.5821 107.955 44.5821H102.94V52.4328C102.94 52.5821 102.821 52.7015 102.672 52.7015ZM123.328 45.806V33.2687C123.328 33.1194 123.448 33 123.597 33H127C127.149 33 127.269 33.1194 127.269 33.2687V46.7612C127.269 51.0597 124.91 53 120.463 53C116.254 53 113.627 51.3284 113.627 46.7612V33.2687C113.627 33.1194 113.746 33 113.896 33H117.328C117.478 33 117.597 33.1194 117.597 33.2687V45.806C117.597 48.403 119.06 48.9701 120.284 48.9701H120.642C122.493 48.9701 123.328 47.7164 123.328 45.806V45.806ZM115.478 34.9104V46.5224C115.478 49.209 117.299 51.1493 120.134 51.1493H120.881C123.716 51.1493 125.567 49.1194 125.567 46.5224V34.9104C125.567 34.6418 125.209 34.6119 125.209 34.9104V46.5224C125.209 48.9701 123.448 50.7612 120.881 50.7612H120.134C117.627 50.7612 115.836 49.1493 115.836 46.5224V34.9104C115.836 34.6418 115.478 34.6418 115.478 34.9104V34.9104ZM135.716 36.7313H131.478C131.328 36.7313 131.209 36.6119 131.209 36.4627V33.2687C131.209 33.1194 131.328 33 131.478 33H143.925C144.075 33 144.194 33.1194 144.194 33.2687V36.4627C144.194 36.6119 144.075 36.7313 143.925 36.7313H139.687V52.4328C139.687 52.5821 139.567 52.7015 139.418 52.7015H135.985C135.836 52.7015 135.716 52.5821 135.716 52.4328V36.7313V36.7313ZM142.104 34.6418H133.09C132.881 34.6418 132.881 35.0299 133.09 35.0299H137.507V50.8507C137.507 51.0597 137.896 51.0597 137.896 50.8507V35.0299H142.104C142.403 35.0299 142.373 34.6418 142.104 34.6418V34.6418ZM157.866 45.806V33.2687C157.866 33.1194 157.985 33 158.134 33H161.537C161.687 33 161.806 33.1194 161.806 33.2687V46.7612C161.806 51.0597 159.448 53 155 53C150.791 53 148.164 51.3284 148.164 46.7612V33.2687C148.164 33.1194 148.284 33 148.433 33H151.866C152.015 33 152.134 33.1194 152.134 33.2687V45.806C152.134 48.403 153.597 48.9701 154.821 48.9701H155.179C157.03 48.9701 157.866 47.7164 157.866 45.806V45.806ZM150.015 34.9104V46.5224C150.015 49.209 151.836 51.1493 154.672 51.1493H155.418C158.254 51.1493 160.104 49.1194 160.104 46.5224V34.9104C160.104 34.6418 159.746 34.6119 159.746 34.9104V46.5224C159.746 48.9701 157.985 50.7612 155.418 50.7612H154.672C152.164 50.7612 150.373 49.1493 150.373 46.5224V34.9104C150.373 34.6418 150.015 34.6418 150.015 34.9104V34.9104ZM178.373 44.9104C177.955 45.7761 177.358 46.4328 176.522 46.8209L179.03 52.3433C179.119 52.5224 179 52.7015 178.821 52.7015H175.149C175.03 52.7015 174.97 52.6418 174.94 52.5522L172.612 47.4776H171.09V52.4328C171.09 52.5821 170.97 52.7015 170.821 52.7015H167.388C167.269 52.7015 167.179 52.5821 167.179 52.4328V33.2687C167.179 33.1194 167.269 33 167.388 33H173.597C176.91 33 178.91 34.8806 178.91 38.3731V42.1343C178.91 43.1791 178.731 44.1642 178.373 44.9104V44.9104ZM175 41.209V39.2687C175 37.1791 174.224 36.9701 171.955 36.9701H171.09V43.5672H171.955C173.836 43.5672 174.94 43.5373 175 41.209ZM169.358 50.8806V45.7761H173.657L176.164 50.9403C176.224 51.0896 176.582 51.0299 176.493 50.7612L173.985 45.6866C176.313 45.3582 177.119 44.1343 177.119 41.9254V38.194C177.119 34.9104 174.134 34.6418 173.209 34.6418H169.179C169.119 34.6418 169 34.7313 169 34.8209V50.8806C169 51.0896 169.358 51.0896 169.358 50.8806V50.8806ZM176.761 38.194V41.9254C176.761 44.9701 174.821 45.3881 172.94 45.3881H169.358V35.0299H173.209C176.433 35.0299 176.761 37.209 176.761 38.194V38.194ZM184.433 52.7015C184.284 52.7015 184.194 52.5821 184.194 52.4328V33.2687C184.194 33.1194 184.284 33 184.433 33H194.582C194.731 33 194.851 33.1194 194.851 33.2687V36.4627C194.851 36.6119 194.731 36.7313 194.582 36.7313H188.134V40.791H193.149C193.299 40.791 193.388 40.9104 193.388 41.0597V44.3134C193.388 44.4627 193.299 44.5821 193.149 44.5821H188.134V48.9701H194.582C194.731 48.9701 194.851 49.0896 194.851 49.2388V52.4328C194.851 52.5821 194.731 52.7015 194.582 52.7015H184.433V52.7015ZM185.925 34.8806V50.7612C185.925 50.9403 186.045 51 186.164 51H193.03C193.298 51 193.239 50.6418 193.03 50.6418H186.313V42.8507H191.806C191.985 42.8507 191.985 42.4328 191.806 42.4328H186.313V35.0299H193.03C193.239 35.0299 193.298 34.6418 193.03 34.6418H186.164C186.045 34.6418 185.925 34.7313 185.925 34.8806V34.8806ZM206.313 33C209.627 33 211.627 34.8806 211.627 38.3731V42.1343C211.627 45.3284 209.657 47.4776 206.313 47.4776H203.806V52.4328C203.806 52.5821 203.687 52.7015 203.537 52.7015H200.104C199.985 52.7015 199.896 52.5821 199.896 52.4328V33.2687C199.896 33.1194 199.985 33 200.104 33H206.313V33ZM207.716 41.2388V39.2687C207.716 37.209 206.761 37 204.672 37H203.806V43.5672H204.672C206.313 43.5672 207.716 43.2687 207.716 41.2388ZM209.836 41.9254V38.194C209.836 34.9104 207.299 34.6418 205.925 34.6418H201.896C201.836 34.6418 201.716 34.7313 201.716 34.8209V50.8806C201.716 51.0896 202.075 51.0896 202.075 50.8806V45.806H205.657C208.284 45.806 209.836 44.8806 209.836 41.9254V41.9254ZM202.075 35.0299H205.925C209.239 35.0299 209.448 37.209 209.448 38.194V41.9254C209.448 44.9701 207.537 45.3881 205.657 45.3881H202.075V35.0299V35.0299ZM216.075 52.7015C215.925 52.7015 215.836 52.5821 215.836 52.4328V33.2687C215.836 33.1194 215.925 33 216.075 33H226.224C226.373 33 226.493 33.1194 226.493 33.2687V36.4627C226.493 36.6119 226.373 36.7313 226.224 36.7313H219.776V40.791H224.791C224.94 40.791 225.03 40.9104 225.03 41.0597V44.3134C225.03 44.4627 224.94 44.5821 224.791 44.5821H219.776V48.9701H226.224C226.373 48.9701 226.493 49.0896 226.493 49.2388V52.4328C226.493 52.5821 226.373 52.7015 226.224 52.7015H216.075ZM217.567 34.8806V50.7612C217.567 50.9403 217.687 51 217.806 51H224.672C224.94 51 224.881 50.6418 224.672 50.6418H217.955V42.8507H223.448C223.627 42.8507 223.627 42.4328 223.448 42.4328H217.955V35.0299H224.672C224.881 35.0299 224.94 34.6418 224.672 34.6418H217.806C217.687 34.6418 217.567 34.7313 217.567 34.8806V34.8806ZM239.239 33C241.269 33 242.791 33.5672 243.806 34.6716C244.701 35.6567 245.149 37.1194 245.149 38.9104V46.8209C245.149 50.4328 243.06 52.7015 239.239 52.7015H231.776C231.627 52.7015 231.537 52.5821 231.537 52.4328V33.2687C231.537 33.1194 231.627 33 231.776 33H239.239V33ZM241.239 45.9254V39.806C241.239 37.9254 240.254 36.7313 238.164 36.7313H235.478V48.9701H238.164C239.955 48.9701 241.239 47.806 241.239 45.9254ZM233.358 34.8209V50.8806C233.358 51 233.478 51.0298 233.537 51.0298H238.403C241.836 51.0298 243.388 48.9701 243.388 47.0597V39.4179C243.388 36.2537 241.716 34.6418 238.313 34.6418H233.537C233.478 34.6418 233.358 34.6716 233.358 34.8209V34.8209ZM243.03 39.4179V47.0597C243.03 49.4478 240.642 50.7015 238.403 50.7015H233.716V35.0299H238.313C241.448 35.0299 243.03 36.4328 243.03 39.4179ZM250.612 52.7015C250.463 52.7015 250.373 52.5821 250.373 52.4328V33.2687C250.373 33.1194 250.463 33 250.612 33H254.015C254.164 33 254.284 33.1194 254.284 33.2687V52.4328C254.284 52.5821 254.164 52.7015 254.015 52.7015H250.612ZM252.164 34.791V50.8806C252.164 51.1493 252.493 51.1493 252.493 50.8806V34.791C252.493 34.5821 252.164 34.5821 252.164 34.791V34.791ZM263.507 33.1791C263.537 33.0896 263.597 33 263.716 33H267.418C267.537 33 267.597 33.0896 267.627 33.1791L272.791 52.3731C272.821 52.5522 272.701 52.7015 272.522 52.7015H269.119C269.03 52.7015 268.94 52.6418 268.91 52.5224L267.746 48.3433H263.388L262.254 52.5224C262.224 52.6418 262.164 52.7015 262.045 52.7015H258.612C258.433 52.7015 258.313 52.5522 258.343 52.3731L263.507 33.1791ZM264.343 44.6418H266.821L265.537 40.1343L264.343 44.6418ZM268.94 46.403L270.313 50.8806C270.373 51.0597 270.701 51.0298 270.612 50.791L265.836 34.9104C265.746 34.5224 265.239 34.4925 265.149 34.9104L260.522 50.791C260.433 51 260.761 51.0896 260.851 50.9104L262.164 46.403H268.94V46.403ZM262.254 46.0149L265.507 35.0299L268.821 46.0149H262.254Z" fill="#111111"/>
<defs>
<linearGradient id="paint0_linear_394_177" x1="4" y1="4" x2="68.8706" y2="4" gradientUnits="userSpaceOnUse">
<stop stop-color="#2D388A"/>
<stop offset="1" stop-color="#00AEEF"/>
</linearGradient>
</defs>
</svg>
